<svg width="30" height="30" viewBox="0 0 30 30" fill="none" xmlns="http://www.w3.org/2000/svg">
<g clip-path="url(#clip0)">
<path d="M10.2273 0H0.68184C0.304965 0 0 0.304965 0 0.68184V10.2273C0 10.6042 0.304965 10.9091 0.68184 10.9091H2.04546C2.42233 10.9091 2.7273 10.6042 2.7273 10.2273V2.7273H10.2273C10.6042 2.7273 10.9091 2.42233 10.9091 2.04546V0.68184C10.9091 0.304965 10.6042 0 10.2273 0Z" fill="black"/>
<path d="M29.3181 0H19.7727C19.3958 0 19.0908 0.304965 19.0908 0.68184V2.04546C19.0908 2.42233 19.3958 2.7273 19.7727 2.7273H27.2726V10.2273C27.2726 10.6042 27.5776 10.9091 27.9545 10.9091H29.3181C29.6949 10.9091 29.9999 10.6042 29.9999 10.2273V0.68184C29.9999 0.304965 29.695 0 29.3181 0Z" fill="black"/>
<path d="M29.3181 19.0908H27.9545C27.5777 19.0908 27.2727 19.3958 27.2727 19.7727V27.2726H19.7727C19.3958 27.2726 19.0908 27.5776 19.0908 27.9545V29.3181C19.0908 29.695 19.3958 29.9999 19.7727 29.9999H29.3181C29.6949 29.9999 29.9999 29.695 29.9999 29.3181V19.7726C29.9999 19.3957 29.695 19.0908 29.3181 19.0908Z" fill="black"/>
<path d="M10.2273 27.2727H2.7273V19.7727C2.7273 19.3958 2.42233 19.0908 2.04546 19.0908H0.68184C0.304965 19.0909 0 19.3958 0 19.7727V29.3181C0 29.6949 0.304965 29.9999 0.68184 29.9999H10.2273C10.6042 29.9999 10.9091 29.6949 10.9091 29.3181V27.9545C10.9091 27.5777 10.6042 27.2727 10.2273 27.2727Z" fill="black"/>
</g>
<defs>
<clipPath id="clip0">
<rect width="30" height="30" fill="white"/>
</clipPath>
</defs>
</svg>
