<svg width="30" height="30" viewBox="0 0 30 30" fill="none" xmlns="http://www.w3.org/2000/svg">
<path d="M22.5002 14.9999C22.5002 12.0582 20.8001 9.51651 18.3335 8.2915V11.9749L22.4252 16.0665C22.4752 15.7165 22.5002 15.3582 22.5002 14.9999Z" fill="black"/>
<path d="M26.6668 14.9999C26.6668 16.5666 26.3251 18.0416 25.7668 19.3999L28.2918 21.9249C29.3751 19.8499 30.0002 17.4999 30.0002 14.9999C30.0002 7.86658 25.0085 1.89994 18.3335 0.383301V3.82494C23.1501 5.2583 26.6668 9.71658 26.6668 14.9999Z" fill="black"/>
<path d="M15 1.6665L11.5166 5.14986L15 8.63322V1.6665Z" fill="black"/>
<path d="M2.125 0L0 2.125L7.875 10H0V20H6.66664L15 28.3334V17.125L22.0916 24.2166C20.975 25.075 19.7166 25.7666 18.3333 26.1833V29.625C20.6249 29.1 22.7166 28.05 24.4749 26.6084L27.875 30L30 27.875L15 12.875L2.125 0Z" fill="black"/>
</svg>
