<svg width="30" height="30" viewBox="0 0 30 30" fill="none" xmlns="http://www.w3.org/2000/svg">
<g clip-path="url(#clip0)">
<path d="M10.2273 0H8.86366C8.48679 0 8.18182 0.304965 8.18182 0.68184V8.18182H0.68184C0.304965 8.18182 0 8.48679 0 8.86366V10.2273C0 10.6042 0.304965 10.9091 0.68184 10.9091H10.2273C10.6042 10.9091 10.9091 10.6042 10.9091 10.2273V0.68184C10.9091 0.304965 10.6042 0 10.2273 0Z" fill="black"/>
<path d="M29.3181 8.18182H21.8181V0.68184C21.8181 0.304965 21.5132 0 21.1363 0H19.7727C19.3958 0 19.0908 0.304965 19.0908 0.68184V10.2273C19.0908 10.6042 19.3958 10.9091 19.7727 10.9091H29.3181C29.695 10.9091 29.9999 10.6042 29.9999 10.2273V8.86366C29.9999 8.48679 29.695 8.18182 29.3181 8.18182Z" fill="black"/>
<path d="M29.3181 19.0908H19.7727C19.3958 19.0908 19.0908 19.3958 19.0908 19.7727V29.3181C19.0908 29.695 19.3958 29.9999 19.7727 29.9999H21.1363C21.5131 29.9999 21.8181 29.695 21.8181 29.3181V21.8181H29.3181C29.6949 21.8181 29.9999 21.5131 29.9999 21.1362V19.7726C29.9999 19.3957 29.695 19.0908 29.3181 19.0908Z" fill="black"/>
<path d="M10.2273 19.0908H0.68184C0.304965 19.0908 0 19.3957 0 19.7726V21.1362C0 21.5131 0.304965 21.8181 0.68184 21.8181H8.18182V29.318C8.18182 29.6949 8.48679 29.9999 8.86366 29.9999H10.2273C10.6042 29.9999 10.9091 29.6949 10.9091 29.318V19.7726C10.9091 19.3957 10.6042 19.0908 10.2273 19.0908Z" fill="black"/>
</g>
<defs>
<clipPath id="clip0">
<rect width="30" height="30" fill="white"/>
</clipPath>
</defs>
</svg>
