<svg width="15" height="36" viewBox="0 0 15 36" fill="none" xmlns="http://www.w3.org/2000/svg">
<path d="M13.125 4.5V27C13.125 30.7282 10.6069 33.75 7.5 33.75C4.39314 33.75 1.875 30.7282 1.875 27V6.75C1.875 4.26486 3.55405 2.25 5.625 2.25C7.69595 2.25 9.375 4.26486 9.375 6.75V27C9.375 28.2431 8.535 29.25 7.5 29.25C6.46405 29.25 5.625 28.2431 5.625 27V9H3.75V27C3.75 29.4851 5.42905 31.5 7.5 31.5C9.57095 31.5 11.25 29.4851 11.25 27V6.75C11.25 3.02177 8.73186 0 5.625 0C2.51814 0 0 3.02177 0 6.75V28.125C0.462197 32.5631 3.67595 36 7.5 36C11.3241 36 14.5378 32.5631 15 28.125V4.5H13.125Z" fill="black"/>
</svg>
