<svg width="71" height="63" viewBox="0 0 71 63" fill="none" xmlns="http://www.w3.org/2000/svg">
<circle cx="31.5" cy="31.5" r="30.5" fill="#F2E5EF" stroke="#FF0000" stroke-width="2"/>
<path d="M31.0109 43.3355C31.0109 43.9761 30.6407 44.558 30.0615 44.8297C29.8376 44.9356 29.5976 44.9868 29.3592 44.9868C28.9816 44.9868 28.6076 44.857 28.3054 44.6065L19.2776 37.1257H14.4694C13.5576 37.1265 12.8181 36.3866 12.8181 35.4748V28.8956C12.8181 27.9834 13.5576 27.2439 14.4694 27.2439H19.278L28.3058 19.7631C28.7991 19.3543 29.4831 19.2671 30.0619 19.5407C30.6407 19.8123 31.0113 20.3947 31.0113 21.0349L31.0109 43.3355ZM37.3571 40.7551C37.3168 40.7578 37.2781 40.7594 37.2382 40.7594C36.8021 40.7594 36.3815 40.587 36.0708 40.2759L35.85 40.0543C35.2707 39.4763 35.2027 38.5605 35.6905 37.9031C36.9271 36.2357 37.5798 34.2592 37.5798 32.1858C37.5798 29.9556 36.8388 27.8638 35.4364 26.1362C34.9025 25.4796 34.9518 24.526 35.5502 23.928L35.7706 23.7071C36.1005 23.3773 36.5425 23.1975 37.0209 23.226C37.4868 23.2495 37.9218 23.4687 38.2173 23.8299C40.1626 26.2101 41.1901 29.1 41.1901 32.1862C41.1901 35.0605 40.2814 37.7964 38.5616 40.0969C38.2744 40.4803 37.8351 40.7211 37.3571 40.7551ZM44.1844 45.8584C43.8858 46.2113 43.4539 46.4232 42.9915 46.4427C42.9688 46.4435 42.9458 46.4443 42.9223 46.4443C42.485 46.4443 42.0652 46.2715 41.7545 45.9608L41.5376 45.7439C40.9314 45.1381 40.8903 44.1692 41.4414 43.5133C44.1046 40.3459 45.5719 36.3233 45.5719 32.1858C45.5719 27.8822 44.0011 23.7392 41.1498 20.5202C40.5718 19.8667 40.6011 18.8774 41.2163 18.2599L41.4328 18.043C41.7541 17.7201 42.1715 17.5423 42.6503 17.5575C43.1049 17.5704 43.5348 17.7713 43.8369 18.1114C47.2834 21.9917 49.1817 26.9906 49.1817 32.1858C49.1825 37.1843 47.4077 42.0402 44.1844 45.8584Z" fill="#FF0000"/>
</svg>
