<svg width="43" height="34" viewBox="0 0 43 34" fill="none" xmlns="http://www.w3.org/2000/svg">
<path d="M21.2249 30.0753C21.2249 30.8227 20.7931 31.5016 20.1173 31.8186C19.856 31.9421 19.576 32.0019 19.2979 32.0019C18.8574 32.0019 18.421 31.8505 18.0685 31.5582L7.53612 22.8306H1.92655C0.86273 22.8315 0 21.9683 0 20.9045V13.2288C0 12.1645 0.86273 11.3018 1.92655 11.3018H7.53657L18.069 2.5742C18.6444 2.09723 19.4424 1.99555 20.1177 2.31474C20.7931 2.63165 21.2253 3.31108 21.2253 4.05798L21.2249 30.0753ZM28.6288 27.0649C28.5818 27.0681 28.5367 27.0699 28.4901 27.0699C27.9813 27.0699 27.4906 26.8688 27.1281 26.5058L26.8705 26.2473C26.1947 25.5729 26.1154 24.5045 26.6844 23.7375C28.1272 21.7923 28.8887 19.4863 28.8887 17.0673C28.8887 14.4655 28.0241 12.025 26.388 10.0095C25.7652 9.24348 25.8226 8.13087 26.5207 7.43321L26.7779 7.17558C27.1628 6.79072 27.6785 6.58097 28.2366 6.61425C28.7802 6.64161 29.2877 6.89742 29.6324 7.31876C31.9019 10.0957 33.1006 13.4673 33.1006 17.0678C33.1006 20.4211 32.0405 23.613 30.0341 26.297C29.699 26.7443 29.1864 27.0252 28.6288 27.0649ZM36.594 33.0187C36.2456 33.4305 35.7417 33.6776 35.2023 33.7004C35.1758 33.7013 35.1489 33.7022 35.1216 33.7022C34.6113 33.7022 34.1216 33.5007 33.7591 33.1382L33.506 32.8851C32.7988 32.1783 32.7509 31.0479 33.3938 30.2828C36.5009 26.5875 38.2127 21.8944 38.2127 17.0673C38.2127 12.0464 36.3801 7.21297 33.0537 3.45745C32.3793 2.69503 32.4135 1.54093 33.1312 0.820467L33.3838 0.567394C33.7586 0.190747 34.2456 -0.0167271 34.8042 0.00105645C35.3345 0.0161041 35.8361 0.250482 36.1886 0.647192C40.2095 5.17424 42.4242 11.0063 42.4242 17.0673C42.4252 22.899 40.3545 28.5642 36.594 33.0187Z" fill="#FF0000"/>
</svg>
