<svg width="60" height="60" viewBox="0 0 60 60" fill="none" xmlns="http://www.w3.org/2000/svg">
<path d="M30.0181 48.7035C30.0181 49.7605 29.4073 50.7208 28.4516 51.169C28.0821 51.3438 27.6861 51.4282 27.2927 51.4282C26.6697 51.4282 26.0526 51.2141 25.5541 50.8008L10.6582 38.4574H2.72469C1.22015 38.4587 0 37.2379 0 35.7334V24.8778C0 23.3726 1.22015 22.1525 2.72469 22.1525H10.6589L25.5547 9.80911C26.3686 9.13455 27.4972 8.99073 28.4522 9.44216C29.4073 9.89037 30.0187 10.8513 30.0187 11.9076L30.0181 48.7035ZM40.4893 44.4459C40.4228 44.4504 40.359 44.453 40.2932 44.453C39.5735 44.453 38.8796 44.1686 38.3669 43.6553L38.0025 43.2896C37.0468 42.3358 36.9346 40.8248 37.7394 39.7401C39.7799 36.989 40.8569 33.7277 40.8569 30.3065C40.8569 26.6268 39.6341 23.1753 37.3202 20.3248C36.4393 19.2414 36.5206 17.6678 37.5079 16.6811L37.8716 16.3168C38.4159 15.7725 39.1453 15.4758 39.9347 15.5229C40.7034 15.5616 41.4211 15.9234 41.9087 16.5193C45.1183 20.4467 46.8138 25.2151 46.8138 30.3072C46.8138 35.0498 45.3144 39.5641 42.4768 43.3599C42.0028 43.9926 41.278 44.3898 40.4893 44.4459ZM51.7543 52.8664C51.2616 53.4487 50.549 53.7982 49.7861 53.8305C49.7487 53.8318 49.7107 53.8331 49.672 53.8331C48.9503 53.8331 48.2577 53.548 47.745 53.0353L47.3871 52.6774C46.3869 51.6778 46.3191 50.0791 47.2284 48.997C51.6228 43.7707 54.0437 37.1334 54.0437 30.3065C54.0437 23.2056 51.4519 16.3697 46.7473 11.0583C45.7935 9.98001 45.8419 8.34777 46.857 7.32883L47.2143 6.97091C47.7444 6.43823 48.4331 6.1448 49.2231 6.16995C49.9731 6.19123 50.6825 6.52271 51.181 7.08377C56.8677 13.4863 60 21.7346 60 30.3065C60.0013 38.5541 57.0728 46.5663 51.7543 52.8664Z" fill="black"/>
</svg>
